<svg xmlns="http://www.w3.org/2000/svg" width="25" height="24" viewBox="0 0 25 24" fill="none">
  <path d="M16.5283 2.82501C14.7883 2.82501 13.1183 3.63501 12.0283 4.91501C10.9383 3.63501 9.26832 2.82501 7.52832 2.82501C4.44832 2.82501 2.02832 5.24501 2.02832 8.32501C2.02832 12.105 5.42832 15.185 10.5783 19.865L12.0283 21.175L13.4783 19.855C18.6283 15.185 22.0283 12.105 22.0283 8.32501C22.0283 5.24501 19.6083 2.82501 16.5283 2.82501ZM12.1283 18.375L12.0283 18.475L11.9283 18.375C7.16832 14.065 4.02832 11.215 4.02832 8.32501C4.02832 6.32501 5.52832 4.82501 7.52832 4.82501C9.06832 4.82501 10.5683 5.81501 11.0983 7.18501H12.9683C13.4883 5.81501 14.9883 4.82501 16.5283 4.82501C18.5283 4.82501 20.0283 6.32501 20.0283 8.32501C20.0283 11.215 16.8883 14.065 12.1283 18.375Z" fill="black"/>
</svg>