<svg xmlns="http://www.w3.org/2000/svg" width="17" height="16" viewBox="0 0 17 16" fill="none"><g clip-path="url(#clip0_6196_17204)"><path d="M9.62602 15.326H6.19702C6.19702 15.244 6.24202 6.14996 6.19702 5.20596H9.62602V6.63796C9.89456 6.2082 10.2461 5.83629 10.66 5.54396C11.2716 5.1472 11.9894 4.94595 12.718 4.96696C13.2397 4.94564 13.7602 5.03354 14.246 5.22502C14.7317 5.41651 15.1722 5.70737 15.539 6.07896C16.3451 7.03966 16.7489 8.27462 16.666 9.52596V15.326H13.237V9.91096C13.237 8.86696 12.937 7.62296 11.499 7.62296C11.0848 7.61571 10.6811 7.75289 10.357 8.01096C10.0838 8.23522 9.87154 8.52484 9.74002 8.85296C9.65054 9.11662 9.61219 9.39493 9.62702 9.67296V15.326H9.62602ZM4.29802 15.326H0.866016V5.20496H4.29602V15.326H4.29802ZM2.58402 3.82596H2.56602C2.32429 3.84421 2.08139 3.81253 1.85244 3.73288C1.62348 3.65324 1.41336 3.52733 1.23515 3.363C1.05694 3.19867 0.914442 2.99943 0.81653 2.77767C0.718619 2.5559 0.667386 2.31637 0.666016 2.07396C0.668083 1.8284 0.721198 1.58595 0.821985 1.36202C0.922772 1.13808 1.06903 0.937554 1.25147 0.773172C1.4339 0.60879 1.64853 0.484146 1.88172 0.407157C2.11491 0.330168 2.36157 0.302517 2.60602 0.325959C2.84888 0.304973 3.09345 0.334493 3.32435 0.41266C3.55524 0.490827 3.76745 0.615948 3.94762 0.780147C4.12779 0.944346 4.27201 1.14407 4.37121 1.36674C4.47041 1.5894 4.52244 1.8302 4.52402 2.07396C4.52709 2.30545 4.4823 2.53508 4.39248 2.74846C4.30265 2.96184 4.16972 3.15436 4.00202 3.31396C3.61297 3.66095 3.105 3.84437 2.58402 3.82596Z" fill="#26262A"></path></g><defs><clipPath id="clip0_6196_17204"><rect width="16" height="15" fill="white" transform="translate(0.666016 0.5)"></rect></clipPath></defs></svg>