<svg width="40" height="40" viewBox="0 0 36 36" fill="none" xmlns="http://www.w3.org/2000/svg"><rect width="36" height="36" rx="12" fill="#FD541A"></rect><path d="M15.7693 13.1848C14.0693 15.0932 12.9027 17.8348 12.7943 18.0932L10.911 17.2848C10.3693 17.0515 10.236 16.3432 10.6527 15.9265L13.161 13.4182C13.5527 13.0265 14.1193 12.8515 14.6693 12.9598L15.7693 13.1848ZM17.011 21.6515C17.261 21.9015 17.6277 21.9682 17.9443 21.8182C18.911 21.3682 20.986 20.3098 22.3277 18.9682C26.1527 15.1432 26.186 12.0265 25.961 10.6932C25.9027 10.3598 25.636 10.0932 25.3027 10.0348C23.9693 9.80984 20.8527 9.84317 17.0277 13.6682C15.686 15.0098 14.636 17.0848 14.1777 18.0515C14.0277 18.3682 14.1027 18.7432 14.3443 18.9848L17.011 21.6515ZM22.8193 20.2348C20.911 21.9348 18.1693 23.1015 17.911 23.2098L18.7193 25.0932C18.9527 25.6348 19.661 25.7682 20.0777 25.3515L22.586 22.8432C22.9777 22.4515 23.1527 21.8848 23.0443 21.3348L22.8193 20.2348ZM15.561 22.4015C15.7277 23.2848 15.436 24.1015 14.8777 24.6598C14.236 25.3015 12.2443 25.7765 10.9527 26.0265C10.3777 26.1348 9.86935 25.6265 9.97768 25.0515C10.2277 23.7598 10.6943 21.7682 11.3443 21.1265C11.9027 20.5682 12.7193 20.2765 13.6027 20.4432C14.5777 20.6265 15.3777 21.4265 15.561 22.4015ZM18.9444 15.3932C18.9444 14.4765 19.6944 13.7265 20.611 13.7265C21.5277 13.7265 22.2777 14.4765 22.2777 15.3932C22.2777 16.3098 21.5277 17.0598 20.611 17.0598C19.6944 17.0598 18.9444 16.3098 18.9444 15.3932Z" fill="white"></path></svg>