<svg width="42" height="43" viewBox="0 0 42 43" fill="none" xmlns="http://www.w3.org/2000/svg">
<rect x="0.5" y="1" width="41" height="41" rx="20.5" stroke="#D4D4D4"/>
<g clip-path="url(#clip0_1_682)">
<path d="M29.6216 14.8905C29.057 15.2291 28.8736 15.9768 29.2123 16.5411C31.4987 20.322 30.92 25.1468 27.7868 28.2788C24.6535 31.4107 19.8266 32.0032 16.0442 29.7036C15.4796 29.3651 14.7457 29.5344 14.3928 30.1128C14.0541 30.6771 14.2376 31.4107 14.8021 31.7634C19.5303 34.6272 25.5709 33.8936 29.4804 29.9717C33.3899 26.0639 34.1239 20.0257 31.2729 15.2996C30.9342 14.7353 30.1861 14.5519 29.6216 14.8905Z" fill="#3C74FF"/>
<path d="M14.2234 14.7212C17.3567 11.5893 22.1836 10.9968 25.9661 13.2963C26.446 13.5926 27.0528 13.4939 27.4339 13.1129C27.5045 13.0424 27.5609 12.9719 27.6174 12.8872C27.9561 12.3229 27.7726 11.5893 27.2081 11.2366C22.48 8.37275 16.4393 9.10635 12.5298 13.0283C8.60618 16.9361 7.87227 22.9743 10.7374 27.7004C11.0761 28.2647 11.8241 28.4481 12.3887 28.1095C12.9532 27.7709 13.1367 27.0232 12.798 26.4589C10.4974 22.678 11.0902 17.8531 14.2234 14.7212Z" fill="#3C74FF"/>
<path d="M26.1778 24.5966C26.6295 24.7518 27.1093 24.6249 27.4198 24.3145C27.5469 24.1875 27.6457 24.0464 27.7021 23.863C28.6054 21.2954 27.9421 18.4033 26.0226 16.4847C24.1031 14.566 21.1957 13.903 18.6411 14.8059C18.0201 15.0316 17.6955 15.7088 17.9072 16.3295C18.133 16.9503 18.8105 17.2747 19.4315 17.0631C21.1251 16.4706 23.0446 16.8938 24.3289 18.1776C25.5992 19.4473 26.0367 21.366 25.4439 23.073C25.2181 23.6937 25.5427 24.3709 26.1778 24.5966Z" fill="#3C74FF"/>
<path d="M23.2563 28.2365C23.4398 28.18 23.595 28.0813 23.7221 27.9543C24.0326 27.6439 24.1596 27.1784 24.0185 26.7269C23.8067 26.0921 23.1293 25.7535 22.4942 25.9651C20.7864 26.5294 18.9516 26.0921 17.6814 24.8365C16.4111 23.5668 15.9736 21.7187 16.5523 20.0258C16.764 19.405 16.4253 18.7138 15.7901 18.5021C15.155 18.2905 14.4776 18.6291 14.2659 19.264C13.4049 21.8316 14.0683 24.6249 15.9736 26.5294C17.8931 28.434 20.6876 29.0829 23.2563 28.2365Z" fill="#3C74FF"/>
<path d="M19.502 19.9975C18.6693 20.8299 18.6693 22.1701 19.502 23.0024C20.3347 23.8348 21.6755 23.8348 22.5082 23.0024C23.3409 22.1701 23.3409 20.8299 22.5082 19.9975C21.6755 19.1651 20.3347 19.1651 19.502 19.9975Z" fill="#3C74FF"/>
</g>
<defs>
<clipPath id="clip0_1_682">
<rect width="24" height="24" fill="white" transform="translate(9 9.5)"/>
</clipPath>
</defs>
</svg>
