<svg width="40" height="40" viewBox="0 0 40 40" fill="none" xmlns="http://www.w3.org/2000/svg"><rect width="40" height="40" rx="12" fill="#FCC000"></rect><path fill-rule="evenodd" clip-rule="evenodd" d="M13.098 28.34C13.048 28.69 13.318 29 13.668 29C13.878 29 14.068 28.89 14.168 28.71C14.3194 28.4459 14.5737 28.0008 14.9313 27.3747C15.8736 25.7255 17.5333 22.8206 19.918 18.66C20.138 18.19 19.918 18 19.518 18H16.008L16.908 11.66C16.958 11.31 16.688 11 16.338 11C16.138 11 15.938 11.11 15.838 11.29C14.697 13.2982 13.683 15.0773 12.798 16.6301C11.744 18.4794 10.8729 20.0078 10.188 21.22C10.1874 21.2209 10.1863 21.2225 10.1847 21.2248C10.1356 21.2954 9.64505 22 10.498 22H13.998L13.098 28.34ZM25.5026 16C24.8582 16 24.3359 16.5223 24.3359 17.1667V18.3333H23.1692C22.5249 18.3333 22.0026 18.8557 22.0026 19.5C22.0026 20.1443 22.5249 20.6667 23.1692 20.6667H24.3359V21.8333C24.3359 22.4777 24.8582 23 25.5026 23C26.1469 23 26.6692 22.4777 26.6692 21.8333V20.6667H27.8359C28.4802 20.6667 29.0026 20.1443 29.0026 19.5C29.0026 18.8557 28.4802 18.3333 27.8359 18.3333H26.6692V17.1667C26.6692 16.5223 26.1469 16 25.5026 16Z" fill="white"></path></svg>